<?xml version="1.0" encoding="UTF-8"?>
<svg version="1.1" xmlns="http://www.w3.org/2000/svg" width="658" height="614">
<path d="M0 0 C1.73229861 1.09251981 3.45868848 2.19445312 5.1796875 3.3046875 C7.04897144 4.48648056 8.91876511 5.66746772 10.7890625 6.84765625 C11.69333984 7.42177246 12.59761719 7.99588867 13.52929688 8.58740234 C16.79939723 10.64923476 20.10592059 12.64346537 23.4296875 14.6171875 C37.11183125 22.78000322 50.7075122 31.08736827 64.2421875 39.4921875 C72.38934207 44.54496391 80.5549294 49.5671667 88.7421875 54.5546875 C89.32655579 54.91103271 89.91092407 55.26737793 90.51300049 55.63452148 C97.13070399 59.66477158 103.78054119 63.62570511 110.515625 67.45703125 C111.11689713 67.79978088 111.71816925 68.14253052 112.33766174 68.4956665 C115.2080208 70.12975604 118.08373388 71.75198021 120.96948242 73.35888672 C122.49859253 74.22344482 122.49859253 74.22344482 124.05859375 75.10546875 C124.95392822 75.60473877 125.8492627 76.10400879 126.77172852 76.6184082 C130.23025366 78.98363848 131.73772042 81.22878625 133.0546875 85.1796875 C133.15273 87.27373139 133.18969987 89.3708018 133.19512939 91.46713257 C133.20083954 92.78505295 133.20654968 94.10297333 133.21243286 95.46083069 C133.21367821 96.92489615 133.21480331 98.38896171 133.21582031 99.85302734 C133.2204487 101.39213683 133.22547339 102.93124517 133.23086548 104.47035217 C133.24398851 108.65426067 133.25043412 112.83815313 133.25487614 117.02207899 C133.2578067 119.63545542 133.26191146 122.24882747 133.26638031 124.86220169 C133.28005429 133.03729526 133.28972173 141.21237879 133.2935822 149.387483 C133.29806443 158.82755056 133.31562035 168.26747344 133.3445828 177.707497 C133.36618878 185.00269505 133.37628588 192.29785236 133.37762332 199.59308207 C133.37867202 203.95110231 133.38459379 208.30898653 133.40244293 212.66697311 C133.41890519 216.76605538 133.42108818 220.86489909 133.41230392 224.96400261 C133.41153259 226.46803997 133.41588904 227.97209005 133.42576218 229.4760952 C133.43845671 231.53043987 133.43261945 233.58393639 133.42218018 235.63827515 C133.42364674 236.78754171 133.4251133 237.93680828 133.4266243 239.12090111 C132.87440346 243.66233283 131.11114073 246.22393995 127.76245117 249.25341797 C124.83033762 251.33928723 121.83944481 253.18786392 118.73046875 255 C118.14299362 255.34473358 117.55551849 255.68946716 116.95024109 256.04464722 C115.09138974 257.13508143 113.22961867 258.22038051 111.3671875 259.3046875 C109.49424186 260.39645722 107.62203417 261.48940311 105.7519989 262.58615112 C104.06345688 263.57633466 102.372249 264.56196798 100.6809082 265.54736328 C98.01873325 267.06412122 98.01873325 267.06412122 96.0546875 269.1796875 C91.89387896 271.5310495 87.52772945 273.50229677 83.0546875 275.1796875 C83.0546875 275.8396875 83.0546875 276.4996875 83.0546875 277.1796875 C82.21550781 277.56447266 82.21550781 277.56447266 81.359375 277.95703125 C75.83934766 280.59279993 70.64068754 283.57746393 65.4921875 286.8671875 C64.87263184 287.25962646 64.25307617 287.65206543 63.61474609 288.05639648 C60.29189613 290.09506913 60.29189613 290.09506913 58.0546875 293.1796875 C56.99378906 293.54835938 55.93289063 293.91703125 54.83984375 294.296875 C48.22528214 296.64839212 42.4272292 300.62261391 36.4921875 304.3046875 C35.2272639 305.08220598 33.96188013 305.85897631 32.69604492 306.63500977 C30.23213005 308.14625625 27.77001383 309.66035487 25.30957031 311.17724609 C19.85557893 314.53260443 14.366267 317.82679769 8.86328125 321.10107422 C7.5284824 321.89712461 6.19540412 322.69606167 4.86328125 323.49658203 C2.53417044 324.89589547 0.20106509 326.28834214 -2.1328125 327.6796875 C-2.85299561 328.114021 -3.57317871 328.54835449 -4.31518555 328.99584961 C-4.99105713 329.39682861 -5.66692871 329.79780762 -6.36328125 330.2109375 C-6.95906982 330.56736328 -7.5548584 330.92378906 -8.16870117 331.29101562 C-10.11208041 332.26310583 -11.79831635 332.83790535 -13.9453125 333.1796875 C-22.92082037 329.54486925 -31.2539805 323.59684506 -39.4140625 318.4140625 C-45.13362043 314.76053846 -45.13362043 314.76053846 -51.2578125 311.8671875 C-53.99899135 310.72980829 -56.11916728 309.37479701 -58.44140625 307.53125 C-63.61894777 303.5811096 -69.13470996 300.24639411 -74.6953125 296.8671875 C-75.83579123 296.17045935 -76.97608656 295.4734309 -78.11621094 294.77612305 C-81.115597 292.9432602 -84.1181926 291.11572206 -87.12158203 289.28942871 C-88.92700067 288.19083026 -90.73129028 287.09040356 -92.53515625 285.98925781 C-104.52579638 278.66979126 -116.53609648 271.38553909 -128.6328125 264.2421875 C-129.95841187 263.45884033 -129.95841187 263.45884033 -131.31079102 262.65966797 C-135.51818947 260.17934286 -139.73649335 257.72095842 -143.9765625 255.296875 C-144.76458252 254.84304443 -145.55260254 254.38921387 -146.36450195 253.92163086 C-147.82497562 253.0817524 -149.28938899 252.24866915 -150.75854492 251.42407227 C-154.85205294 249.06418874 -158.04005007 247.07523462 -159.49243164 242.4296875 C-160.50123515 237.41775587 -160.38310263 232.21315029 -160.5703125 227.1171875 C-160.621875 225.92029297 -160.6734375 224.72339844 -160.7265625 223.49023438 C-160.77039063 222.34490234 -160.81421875 221.19957031 -160.859375 220.01953125 C-160.9001416 218.97144287 -160.9409082 217.92335449 -160.98291016 216.84350586 C-160.9453125 214.1796875 -160.9453125 214.1796875 -159.9453125 211.1796875 C-159.84981599 209.46555255 -159.81201389 207.74794493 -159.80728149 206.03115845 C-159.80182816 204.96566269 -159.79637482 203.90016693 -159.79075623 202.80238342 C-159.7897139 201.63348068 -159.78867157 200.46457794 -159.78759766 199.26025391 C-159.78251694 198.02914383 -159.77743622 196.79803375 -159.77220154 195.52961731 C-159.76148762 192.85154408 -159.75248979 190.17352283 -159.74608231 187.49544144 C-159.7353969 183.25956331 -159.71515086 179.0237649 -159.69296265 174.78793335 C-159.63105579 162.74277394 -159.57702329 150.69761939 -159.54394531 138.65234375 C-159.5255967 131.99991992 -159.49665909 125.34762981 -159.4559406 118.69530427 C-159.43487684 115.17567689 -159.41941424 111.65621794 -159.41713333 108.1365242 C-159.41458584 104.21017932 -159.38911909 100.28416488 -159.36181641 96.35791016 C-159.36482254 95.19305588 -159.36782867 94.0282016 -159.3709259 92.82804871 C-159.35983292 91.7569133 -159.34873993 90.68577789 -159.33731079 89.58218384 C-159.33400064 88.65414759 -159.3306905 87.72611134 -159.32728004 86.76995277 C-158.77794251 83.04468876 -157.2222156 80.27274484 -154.3581543 77.82104492 C-153.79265869 77.47920166 -153.22716309 77.1373584 -152.64453125 76.78515625 C-152.00451172 76.39134766 -151.36449219 75.99753906 -150.70507812 75.59179688 C-150.02123047 75.18767578 -149.33738281 74.78355469 -148.6328125 74.3671875 C-147.91931641 73.93341797 -147.20582031 73.49964844 -146.47070312 73.05273438 C-140.87031954 69.66865166 -135.18266374 66.44230107 -129.484375 63.2265625 C-125.01164661 60.67000577 -120.66905783 57.91154215 -116.31274414 55.16308594 C-111.04454901 51.84711538 -105.72657397 48.62228285 -100.3828125 45.4296875 C-93.04881746 41.04774971 -85.73868619 36.62891998 -78.4453125 32.1796875 C-69.72497791 26.86279937 -60.9837299 21.58277478 -52.21875 16.33984375 C-48.28006147 13.9831622 -44.34973713 11.61296166 -40.421875 9.23828125 C-39.30538574 8.56466553 -38.18889648 7.8910498 -37.03857422 7.19702148 C-34.86431239 5.88506548 -32.6913855 4.57089369 -30.52001953 3.25415039 C-28.5516189 2.06806283 -26.5758553 0.89408053 -24.59179688 -0.265625 C-22.95758679 -1.22564805 -21.33975716 -2.21502889 -19.75195312 -3.25 C-12.36515986 -7.71270235 -6.83549731 -4.04484629 0 0 Z M18.0546875 31.1796875 C20.91979121 35.61902402 23.83104405 39.97664675 27.1171875 44.1171875 C31.25393676 49.34976438 35.1227192 54.76782147 39.01391602 60.18359375 C42.05868986 64.41980084 45.12346992 68.63840737 48.23022461 72.8293457 C55.09881795 82.10099714 61.59029896 91.62329812 68.0546875 101.1796875 C80.45202619 95.64485071 92.7928543 90.00882323 105.0546875 84.1796875 C100.78510798 80.53222236 96.18903082 77.76403954 91.3671875 74.9296875 C83.34493979 70.16485033 75.3713146 65.32773096 67.4296875 60.4296875 C66.34872803 59.76316162 65.26776855 59.09663574 64.15405273 58.40991211 C61.92935641 57.03770776 59.70483028 55.66522745 57.48046875 54.29248047 C53.95513231 52.11750182 50.42705079 49.94700101 46.8984375 47.77734375 C46.31164215 47.41649689 45.7248468 47.05565002 45.12026978 46.68386841 C42.30733954 44.95410743 39.49429821 43.22452747 36.68115234 41.49511719 C35.66746582 40.8715332 34.6537793 40.24794922 33.609375 39.60546875 C32.65772461 39.02104004 31.70607422 38.43661133 30.72558594 37.83447266 C28.28091747 36.31985082 25.85892735 34.77400217 23.4375 33.22265625 C20.4279941 31.00736591 20.4279941 31.00736591 18.0546875 31.1796875 Z M-54.3203125 36.1171875 C-61.95243037 40.95904952 -69.65403111 45.68173126 -77.3828125 50.3671875 C-77.9790744 50.72891052 -78.5753363 51.09063354 -79.18966675 51.46331787 C-87.90495332 56.74934422 -96.63912005 62.00327226 -105.3828125 67.2421875 C-108.36601674 69.03141167 -111.34896495 70.82106026 -114.33154297 72.61132812 C-115.97582716 73.59796007 -117.62061184 74.58375889 -119.26611328 75.56835938 C-121.16230279 76.70456641 -123.05459168 77.84691217 -124.9453125 78.9921875 C-126.399375 79.86810547 -126.399375 79.86810547 -127.8828125 80.76171875 C-130.06585915 82.01770903 -130.06585915 82.01770903 -130.9453125 84.1796875 C-126.06034154 86.49410187 -121.16743918 88.79045673 -116.26635742 91.07055664 C-114.60064923 91.84853558 -112.93720478 92.63138079 -111.27612305 93.41918945 C-108.88650293 94.55149077 -106.48925822 95.66597735 -104.08984375 96.77734375 C-103.3500679 97.1324855 -102.61029205 97.48762726 -101.84809875 97.85353088 C-98.65347748 99.31506122 -96.59674427 100.21684328 -93.04321289 100.01416016 C-90.05076279 98.82386638 -89.23701289 97.2348095 -87.5703125 94.4921875 C-86.88710937 93.409375 -86.20390625 92.3265625 -85.5 91.2109375 C-85.10651367 90.58316406 -84.71302734 89.95539063 -84.30761719 89.30859375 C-81.5329563 84.97256454 -78.60136714 80.74073487 -75.6953125 76.4921875 C-75.04618896 75.54061768 -74.39706543 74.58904785 -73.72827148 73.60864258 C-66.94259545 63.67737818 -60.04785636 53.82293905 -52.98046875 44.08984375 C-52.5110083 43.44080078 -52.04154785 42.79175781 -51.55786133 42.12304688 C-50.67269069 40.90115929 -49.78342514 39.68222398 -48.8894043 38.46679688 C-46.6362423 35.61642705 -46.6362423 35.61642705 -45.9453125 32.1796875 C-49.21954631 32.1796875 -51.63730917 34.38841161 -54.3203125 36.1171875 Z M-140.9453125 97.1796875 C-141.03789181 108.99273445 -141.10901618 120.80569545 -141.15256119 132.61903095 C-141.17345804 138.10414228 -141.20181412 143.58900588 -141.24707031 149.07397461 C-141.29045299 154.36483897 -141.31443379 159.65546469 -141.32482147 164.94649315 C-141.33222646 166.96758979 -141.34668628 168.988673 -141.36823273 171.00966835 C-141.39716593 173.83526718 -141.40127273 176.65987317 -141.39941406 179.4855957 C-141.41379517 180.32572708 -141.42817627 181.16585846 -141.44299316 182.03144836 C-141.4696918 186.61300765 -141.4696918 186.61300765 -138.91693115 190.22306824 C-138.266297 190.53875259 -137.61566284 190.85443695 -136.9453125 191.1796875 C-132.42691616 184.89271962 -129.12150769 178.5554406 -126.1328125 171.4296875 C-122.69679334 163.40631615 -119.16936351 155.44081611 -115.48828125 147.52734375 C-115.10353134 146.69872833 -114.71878143 145.87011292 -114.32237244 145.01638794 C-112.77291912 141.68178332 -111.22237387 138.34778643 -109.65853882 135.01989746 C-108.55767642 132.67632584 -107.46570517 130.32878087 -106.375 127.98046875 C-106.04320236 127.28139908 -105.71140472 126.58232941 -105.36955261 125.86207581 C-103.57231535 121.97213943 -102.42981953 118.44127882 -101.9453125 114.1796875 C-102.92628906 113.75558594 -103.90726563 113.33148438 -104.91796875 112.89453125 C-126.16268318 103.67522696 -126.16268318 103.67522696 -136.25 98.4765625 C-138.74716989 97.03516083 -138.74716989 97.03516083 -140.9453125 97.1796875 Z M109.33935547 98.74023438 C108.57871796 99.08058716 107.81808044 99.42093994 107.03439331 99.77160645 C106.21351227 100.14346069 105.39263123 100.51531494 104.546875 100.8984375 C103.70625519 101.27577026 102.86563538 101.65310303 101.99954224 102.04187012 C99.30800983 103.25099564 96.61883942 104.46527819 93.9296875 105.6796875 C92.10822584 106.49903795 90.28661314 107.31805274 88.46484375 108.13671875 C83.9930281 110.14714706 79.52332446 112.16220428 75.0546875 114.1796875 C81.73010371 128.59374741 88.90574244 142.70586204 96.27490234 156.77734375 C98.01625074 160.10620949 99.74972763 163.4390464 101.48046875 166.7734375 C102.54680152 168.82555902 103.61320439 170.87764411 104.6796875 172.9296875 C105.1641333 173.86329102 105.6485791 174.79689453 106.14770508 175.75878906 C108.6849051 180.62813571 111.29283293 185.43396556 114.0546875 190.1796875 C114.3846875 190.1796875 114.7146875 190.1796875 115.0546875 190.1796875 C115.0546875 159.4896875 115.0546875 128.7996875 115.0546875 97.1796875 C112.71434661 97.1796875 111.47024377 97.78062905 109.33935547 98.74023438 Z M-76.9453125 116.1796875 C-72.10061437 124.65790923 -67.24944137 133.12627007 -62.3203125 141.5546875 C-61.11197187 143.62369365 -59.90363877 145.69270421 -58.6953125 147.76171875 C-57.77492188 149.33687256 -57.77492188 149.33687256 -56.8359375 150.94384766 C-53.66229479 156.37559617 -50.49112442 161.80878617 -47.3203125 167.2421875 C-46.74071777 168.23460449 -46.16112305 169.22702148 -45.56396484 170.24951172 C-42.66715278 175.21291548 -39.78612791 180.18400966 -36.9453125 185.1796875 C-35.9553125 185.1796875 -34.9653125 185.1796875 -33.9453125 185.1796875 C-33.55666016 186.48099609 -33.55666016 186.48099609 -33.16015625 187.80859375 C-31.92851716 191.22629322 -30.39902418 194.02210774 -28.5078125 197.1171875 C-26.60369011 200.2386322 -24.92430252 203.22878568 -23.484375 206.59375 C-21.82719707 210.45489047 -19.87615379 213.9972372 -17.7578125 217.6171875 C-17.38978516 218.25333984 -17.02175781 218.88949219 -16.64257812 219.54492188 C-15.74697754 221.09186835 -14.8466457 222.63607412 -13.9453125 224.1796875 C-12.6253125 224.1796875 -11.3053125 224.1796875 -9.9453125 224.1796875 C-9.33945312 223.07753906 -8.73359375 221.97539062 -8.109375 220.83984375 C-3.93635575 213.27382459 0.27025416 205.73584677 4.6796875 198.3046875 C9.17512516 190.72455629 13.56229977 183.08407488 17.9296875 175.4296875 C18.27522675 174.82431152 18.62076599 174.21893555 18.97677612 173.59521484 C22.42055797 167.56113939 25.85932514 161.52422629 29.29296875 155.484375 C30.27577619 153.75766137 31.25883986 152.03109355 32.2421875 150.3046875 C32.71027832 149.48218506 33.17836914 148.65968262 33.66064453 147.81225586 C36.2929286 143.20462841 38.96832905 138.62567804 41.68359375 134.06640625 C42.28727783 133.05239746 42.89096191 132.03838867 43.51293945 130.99365234 C44.68563043 129.02920721 45.86239651 127.0671876 47.04370117 125.10791016 C47.56810791 124.23054199 48.09251465 123.35317383 48.6328125 122.44921875 C49.10106445 121.67167236 49.56931641 120.89412598 50.05175781 120.09301758 C51.20944236 118.24449775 51.20944236 118.24449775 51.0546875 116.1796875 C8.8146875 116.1796875 -33.4253125 116.1796875 -76.9453125 116.1796875 Z M-88.9453125 129.1796875 C-94.65641764 140.34569316 -99.99352699 151.65055207 -105.12939453 163.09204102 C-106.33419602 165.77308245 -107.54771701 168.45006713 -108.76171875 171.12695312 C-109.53958682 172.8539306 -110.3169495 174.58113582 -111.09375 176.30859375 C-111.45205902 177.09722305 -111.81036804 177.88585236 -112.17953491 178.69837952 C-114.1626354 183.13815362 -115.73114513 187.46942082 -116.9453125 192.1796875 C-116.45877197 192.48559814 -115.97223145 192.79150879 -115.47094727 193.10668945 C-107.35099885 198.21530407 -99.23218241 203.32407136 -91.18896484 208.55297852 C-89.08382975 209.92090393 -86.97390015 211.28118037 -84.86328125 212.640625 C-82.40883398 214.2228701 -79.97590701 215.83045231 -77.55859375 217.46875 C-62.70001667 227.22825819 -46.21466723 229.50348229 -28.9453125 232.1796875 C-29.62262971 228.55143211 -31.15979135 225.80585036 -33.0078125 222.62890625 C-33.63494141 221.54609375 -34.26207031 220.46328125 -34.90820312 219.34765625 C-35.58707448 218.18740338 -36.26611456 217.02724922 -36.9453125 215.8671875 C-37.6402939 214.67206099 -38.33495377 213.47674746 -39.02929688 212.28125 C-43.12693308 205.23740038 -47.29211732 198.23714041 -51.51171875 191.265625 C-54.87720522 185.65599419 -58.11990096 179.97432838 -61.3828125 174.3046875 C-66.80237851 164.88790628 -72.24053997 155.48429647 -77.78369141 146.13964844 C-78.59761947 144.76633728 -79.40963271 143.39189028 -80.22021484 142.01660156 C-81.47901547 139.88122913 -82.7427216 137.74883787 -84.0078125 135.6171875 C-84.39050293 134.96661377 -84.77319336 134.31604004 -85.16748047 133.64575195 C-86.06543608 132.1400161 -87.00130351 130.6569863 -87.9453125 129.1796875 C-88.2753125 129.1796875 -88.6053125 129.1796875 -88.9453125 129.1796875 Z M63.0546875 129.1796875 C58.07327529 135.69154598 54.35564171 143.01058663 50.5546875 150.2421875 C44.23541304 162.12353775 37.54686913 173.75235929 30.71435547 185.34521484 C28.10058728 189.80915258 25.5466631 194.30664435 22.9921875 198.8046875 C16.81080408 209.67388149 10.44630803 220.43311422 4.0546875 231.1796875 C9.17276865 232.88571455 14.29278633 231.01705558 19.4921875 229.9921875 C20.61818359 229.78271484 21.74417969 229.57324219 22.90429688 229.35742188 C34.73880576 227.06401791 44.92320546 223.83876252 55.0546875 217.2421875 C55.94188477 216.67878662 56.82908203 216.11538574 57.74316406 215.53491211 C60.52293017 213.76380539 63.2896806 211.97373138 66.0546875 210.1796875 C67.8826917 209.00241657 69.71081514 207.82533078 71.5390625 206.6484375 C79.42141724 201.55751068 87.25524778 196.39669241 95.0546875 191.1796875 C93.78961486 187.118767 92.28370294 183.44584442 90.296875 179.6875 C89.75764404 178.66060059 89.21841309 177.63370117 88.6628418 176.57568359 C88.09090088 175.49625488 87.51895996 174.41682617 86.9296875 173.3046875 C85.74509266 171.05000485 84.56149734 168.79479677 83.37890625 166.5390625 C82.80575684 165.44658203 82.23260742 164.35410156 81.64208984 163.22851562 C79.62798807 159.36015158 77.67298687 155.46512939 75.7421875 151.5546875 C72.00949484 144.00828555 68.05606166 136.58648647 64.0546875 129.1796875 C63.7246875 129.1796875 63.3946875 129.1796875 63.0546875 129.1796875 Z M-57.9453125 248.1796875 C-53.97711452 254.52808015 -49.94202337 260.75566729 -45.4453125 266.7421875 C-41.59144865 271.91756545 -37.85957439 277.14479493 -34.28515625 282.51953125 C-33.84300781 283.06738281 -33.40085937 283.61523438 -32.9453125 284.1796875 C-32.2853125 284.1796875 -31.6253125 284.1796875 -30.9453125 284.1796875 C-30.6153125 285.1696875 -30.2853125 286.1596875 -29.9453125 287.1796875 C-29.2853125 287.1796875 -28.6253125 287.1796875 -27.9453125 287.1796875 C-27.74164063 288.15035156 -27.53796875 289.12101562 -27.328125 290.12109375 C-25.89535557 295.13578675 -22.88453975 298.96874992 -19.8203125 303.1171875 C-19.25699219 303.89642578 -18.69367188 304.67566406 -18.11328125 305.47851562 C-16.73272222 307.38555903 -15.34339788 309.28547643 -13.9453125 311.1796875 C-13.4503125 310.1896875 -13.4503125 310.1896875 -12.9453125 309.1796875 C-12.2853125 309.1796875 -11.6253125 309.1796875 -10.9453125 309.1796875 C-9.31375156 306.98178055 -7.80859301 304.78351626 -6.32421875 302.48828125 C-5.86482407 301.79138687 -5.40542938 301.09449249 -4.93211365 300.3764801 C-3.45075304 298.12763428 -1.97865284 295.87292545 -0.5078125 293.6171875 C5.9583515 283.72924022 12.52721428 273.98780168 19.59716797 264.51928711 C26.3241666 256.75575588 26.3241666 256.75575588 30.0546875 248.1796875 C29.14928223 248.20998047 28.24387695 248.24027344 27.31103516 248.27148438 C23.85553813 248.38565762 20.39997341 248.4971241 16.94433594 248.60693359 C15.46676329 248.65440197 13.98922196 248.70285853 12.51171875 248.75244141 C-5.20318987 249.34535843 -22.85529656 249.20382121 -40.5703125 248.6796875 C-42.27082673 248.63127775 -43.97134757 248.58309977 -45.671875 248.53515625 C-49.76310153 248.41932121 -53.85422739 248.30041015 -57.9453125 248.1796875 Z " fill="#FE7300" transform="translate(340.9453125,150.8203125)"/>
<path d="M0 0 C14.69391161 6.54070281 24.35967948 31.7581907 30 46 C39.86750387 71.91073356 45.22890033 97.50723689 45.25 125.1875 C45.25067474 125.98479523 45.25134949 126.78209045 45.25204468 127.60354614 C45.19376144 171.11389204 32.61902726 212.93467186 8 249 C7.60635254 249.58749023 7.21270508 250.17498047 6.80712891 250.78027344 C-7.3626237 271.84075645 -25.40158868 291.1463007 -46 306 C-46.61665527 306.45036621 -47.23331055 306.90073242 -47.86865234 307.36474609 C-100.89277842 345.85802818 -167.75775393 358.33081826 -232.06982422 349.09033203 C-235.73695836 348.50098629 -239.36682876 347.76916821 -243 347 C-243.92280762 346.80954102 -244.84561523 346.61908203 -245.79638672 346.42285156 C-270.61196093 341.20148419 -292.91709544 332.41683466 -315 320 C-315.67562988 319.62536621 -316.35125977 319.25073242 -317.04736328 318.86474609 C-325.68014848 314.02504796 -325.68014848 314.02504796 -326.8203125 310.37109375 C-326.87960937 309.58863281 -326.93890625 308.80617188 -327 308 C-326.67 307.67 -326.34 307.34 -326 307 C-319.95759762 307.09018511 -314.55419136 308.61898556 -308.9375 310.6875 C-283.81817653 319.4248872 -256.64800436 325.0666543 -229.98828125 325.203125 C-229.06558945 325.21018463 -228.14289764 325.21724426 -227.19224548 325.22451782 C-199.44481808 325.56419648 -199.44481808 325.56419648 -172 322 C-170.50364014 321.69400879 -170.50364014 321.69400879 -168.97705078 321.38183594 C-152.11472956 317.83757567 -135.78557802 312.92974313 -120 306 C-120 305.34 -120 304.68 -120 304 C-119.06414062 303.94457031 -118.12828125 303.88914062 -117.1640625 303.83203125 C-111.7128224 303.04877556 -107.15968146 300.27752715 -102.375 297.6875 C-100.9828125 296.95756836 -100.9828125 296.95756836 -99.5625 296.21289062 C-95.01293039 293.79145064 -90.94815524 291.34130916 -87 288 C-85.64581461 287.21303943 -84.27054612 286.46103871 -82.875 285.75 C-73.85914178 280.84037424 -66.01194816 274.34269615 -58.32714844 267.59326172 C-55.88114775 265.46758867 -54.10995159 264.03665053 -51 263 C-51 262.34 -51 261.68 -51 261 C-49.49609375 259.51953125 -49.49609375 259.51953125 -47.4375 257.8125 C-39.70755526 251.20814371 -33.32043487 243.9629163 -27 236 C-26.21625 235.03320312 -25.4325 234.06640625 -24.625 233.0703125 C1.41057147 200.27550613 19.95925058 158.46762919 20.203125 116.07421875 C20.21371445 114.84256485 20.21371445 114.84256485 20.22451782 113.58602905 C20.48401645 89.13098387 20.48401645 89.13098387 17 65 C16.80132324 64.05801758 16.60264648 63.11603516 16.39794922 62.14550781 C12.48939042 43.70647913 7.41772754 25.38414493 -1.14233398 8.52099609 C-2.14991847 5.55933445 -1.92277694 3.95610707 -1 1 C-0.67 0.67 -0.34 0.34 0 0 Z " fill="#FE7300" transform="translate(528,184)"/>
<path d="M0 0 C-0.33 1.65 -0.66 3.3 -1 5 C-4.46856967 6.15618989 -5.3736946 5.80572745 -8.77734375 4.7421875 C-9.75123047 4.44852295 -10.72511719 4.1548584 -11.72851562 3.85229492 C-12.78748047 3.5297876 -13.84644531 3.20728027 -14.9375 2.875 C-82.03232062 -16.63896392 -150.77388934 -9.28740844 -212.18359375 23.72265625 C-219.84266976 27.95749896 -227.02700278 32.71962271 -234 38 C-234.93714844 38.70769531 -235.87429687 39.41539062 -236.83984375 40.14453125 C-241.97733172 44.15794635 -246.83126483 48.46465836 -251.640625 52.86328125 C-253.68167962 54.71171979 -255.76374282 56.48334885 -257.875 58.25 C-298.78156035 94.05352868 -322.92857538 148.6166938 -326.59887695 202.20629883 C-328.33543615 234.06538969 -323.9409256 266.57078702 -312.3125 296.390625 C-310.70919429 300.79971572 -310.52263855 303.38550596 -311 308 C-314 310 -314 310 -316.41796875 309.921875 C-328.32293865 305.6713865 -336.73914551 284.38782479 -342.0546875 273.28125 C-353.34783122 248.87094532 -358.43729813 222.74824193 -358.3125 195.9375 C-358.31067719 195.12396057 -358.30885437 194.31042114 -358.30697632 193.472229 C-358.2591952 180.78673081 -357.73278595 168.43217648 -355 156 C-354.82839355 155.21641113 -354.65678711 154.43282227 -354.47998047 153.62548828 C-345.49659435 114.11946227 -325.59737481 80.19793363 -299 50 C-298.53658203 49.46810059 -298.07316406 48.93620117 -297.59570312 48.38818359 C-276.21096722 23.96000962 -248.48785154 4.41452636 -219 -9 C-218.28730957 -9.32806641 -217.57461914 -9.65613281 -216.84033203 -9.99414062 C-147.14291588 -41.7396217 -66.5925248 -36.76148428 0 0 Z " fill="#FE7400" transform="translate(444,111)"/>
<path d="M0 0 C7.17955441 3.82998534 11.71473839 9.08675254 14.40234375 16.765625 C16.23309212 24.17528113 15.65134263 31.11243556 12.5234375 38.078125 C8.6045354 44.4070471 2.24958978 49.52094273 -4.9375 51.4375 C-14.88253723 52.33114904 -22.34608565 51.55190731 -30.1875 45.25 C-36.605513 39.19764983 -38.59068257 33.15080885 -39.03125 24.39453125 C-38.78146604 16.51592896 -35.40493387 10.0391789 -29.9375 4.4375 C-21.30545673 -2.15097242 -10.34514258 -4.18093845 0 0 Z " fill="#FE7400" transform="translate(175.9375,434.5625)"/>
<path d="M0 0 C4.66409423 4.36913175 8.67871202 9.98523419 9.1796875 16.48828125 C9.33314907 26.4760719 7.81245599 32.68438604 0.9453125 40.08984375 C-4.87985688 45.30244572 -11.83474042 47.2427192 -19.5234375 47.12890625 C-27.06844921 46.29188151 -34.08311898 42.60650802 -39.0234375 36.8515625 C-43.21683263 30.22906654 -44.90068347 23.66148845 -44.0234375 15.8515625 C-42.07274306 8.80149835 -39.10957861 2.37032285 -32.69140625 -1.5859375 C-21.71688674 -7.37758797 -10.28611755 -7.59302496 0 0 Z " fill="#FE7400" transform="translate(509.0234375,122.1484375)"/>
<path d="M0 0 C-2.64 1.65 -5.28 3.3 -8 5 C-7.67 3.68 -7.34 2.36 -7 1 C-2.66666667 -1.33333333 -2.66666667 -1.33333333 0 0 Z " fill="#FE6000" transform="translate(268,199)"/>
<path d="M0 0 C3 1 3 1 3 1 Z " fill="#FF7100" transform="translate(216,104)"/>
<path d="M0 0 C2 1 2 1 2 1 Z " fill="#FF4000" transform="translate(377,499)"/>
<path d="" fill="#FF0000" transform="translate(0,0)"/>
<path d="M0 0 C2 1 2 1 2 1 Z " fill="#FF8000" transform="translate(257,184)"/>
<path d="" fill="#FF0000" transform="translate(0,0)"/>
<path d="" fill="#FF0000" transform="translate(0,0)"/>
<path d="" fill="#FF8000" transform="translate(0,0)"/>
<path d="" fill="#FF0000" transform="translate(0,0)"/>
<path d="" fill="#FF0000" transform="translate(0,0)"/>
<path d="" fill="#FF0000" transform="translate(0,0)"/>
<path d="" fill="#FF0000" transform="translate(0,0)"/>
<path d="" fill="#FF0000" transform="translate(0,0)"/>
<path d="" fill="#FF0000" transform="translate(0,0)"/>
<path d="" fill="#FF5500" transform="translate(0,0)"/>
<path d="" fill="#FF8000" transform="translate(0,0)"/>
<path d="" fill="#FF0000" transform="translate(0,0)"/>
<path d="" fill="#FF8000" transform="translate(0,0)"/>
<path d="" fill="#FF0000" transform="translate(0,0)"/>
<path d="" fill="#FF0000" transform="translate(0,0)"/>
<path d="" fill="#FF0000" transform="translate(0,0)"/>
<path d="" fill="#FF0000" transform="translate(0,0)"/>
<path d="" fill="#FF0000" transform="translate(0,0)"/>
<path d="" fill="#FF5500" transform="translate(0,0)"/>
<path d="" fill="#FF8000" transform="translate(0,0)"/>
<path d="" fill="#FF8000" transform="translate(0,0)"/>
<path d="" fill="#FF0000" transform="translate(0,0)"/>
<path d="" fill="#FF0000" transform="translate(0,0)"/>
<path d="" fill="#FF0000" transform="translate(0,0)"/>
<path d="" fill="#FF0000" transform="translate(0,0)"/>
<path d="" fill="#FF0000" transform="translate(0,0)"/>
<path d="" fill="#FF0000" transform="translate(0,0)"/>
<path d="" fill="#FF8000" transform="translate(0,0)"/>
<path d="" fill="#FF8000" transform="translate(0,0)"/>
<path d="" fill="#FF0000" transform="translate(0,0)"/>
<path d="" fill="#FF5500" transform="translate(0,0)"/>
<path d="" fill="#FF7400" transform="translate(0,0)"/>
<path d="" fill="#FF0000" transform="translate(0,0)"/>
<path d="" fill="#FF0000" transform="translate(0,0)"/>
<path d="" fill="#FF0000" transform="translate(0,0)"/>
<path d="" fill="#FF0000" transform="translate(0,0)"/>
<path d="" fill="#FF0000" transform="translate(0,0)"/>
<path d="" fill="#FF8000" transform="translate(0,0)"/>
<path d="" fill="#FF0000" transform="translate(0,0)"/>
<path d="" fill="#FF0000" transform="translate(0,0)"/>
<path d="" fill="#FF0000" transform="translate(0,0)"/>
<path d="" fill="#FF0000" transform="translate(0,0)"/>
<path d="" fill="#FF0000" transform="translate(0,0)"/>
<path d="" fill="#FF0000" transform="translate(0,0)"/>
<path d="" fill="#FF0000" transform="translate(0,0)"/>
<path d="" fill="#FF8000" transform="translate(0,0)"/>
<path d="" fill="#FF0000" transform="translate(0,0)"/>
<path d="" fill="#FF0000" transform="translate(0,0)"/>
<path d="" fill="#FF0000" transform="translate(0,0)"/>
<path d="" fill="#FF0000" transform="translate(0,0)"/>
<path d="" fill="#FF0000" transform="translate(0,0)"/>
<path d="" fill="#FF0000" transform="translate(0,0)"/>
<path d="" fill="#FF0000" transform="translate(0,0)"/>
<path d="" fill="#FF0000" transform="translate(0,0)"/>
<path d="" fill="#FF0000" transform="translate(0,0)"/>
<path d="" fill="#FF0000" transform="translate(0,0)"/>
<path d="" fill="#FF0000" transform="translate(0,0)"/>
<path d="" fill="#FF0000" transform="translate(0,0)"/>
<path d="" fill="#FF5500" transform="translate(0,0)"/>
<path d="" fill="#FF5500" transform="translate(0,0)"/>
<path d="" fill="#FF8000" transform="translate(0,0)"/>
<path d="" fill="#FF0000" transform="translate(0,0)"/>
<path d="" fill="#FF0000" transform="translate(0,0)"/>
<path d="" fill="#FF0000" transform="translate(0,0)"/>
<path d="" fill="#FF0000" transform="translate(0,0)"/>
<path d="" fill="#FF0000" transform="translate(0,0)"/>
<path d="" fill="#FF0000" transform="translate(0,0)"/>
<path d="" fill="#FF0000" transform="translate(0,0)"/>
<path d="" fill="#FF0000" transform="translate(0,0)"/>
<path d="" fill="#FF0000" transform="translate(0,0)"/>
<path d="" fill="#FF8000" transform="translate(0,0)"/>
<path d="" fill="#FF8000" transform="translate(0,0)"/>
</svg>
